<svg width="90" height="89" viewBox="0 0 90 89" fill="none" xmlns="http://www.w3.org/2000/svg">
  <path d="M35.3879 51.6078C35.3879 55.538 38.4267 58.6983 42.1543 58.6983H49.7716C53.013 58.6983 55.6466 55.9431 55.6466 52.4992C55.6466 48.8121 54.0259 47.475 51.6354 46.6242L39.4397 42.3698C37.0491 41.519 35.4285 40.2224 35.4285 36.4948C35.4285 33.0913 38.0621 30.2957 41.3035 30.2957H48.9207C52.6483 30.2957 55.6871 33.456 55.6871 37.3862" stroke="#33CAFF" stroke-width="6.07759" stroke-linecap="round" stroke-linejoin="round"/>
  <path d="M45.5173 26.2845V62.75" stroke="#33CAFF" stroke-width="6.07759" stroke-linecap="round" stroke-linejoin="round"/>
  <path d="M85.0346 44.5173C85.0346 66.8828 66.8828 85.0346 44.5173 85.0346C22.1517 85.0346 4 66.8828 4 44.5173C4 22.1517 22.1517 4 44.5173 4" stroke="#33CAFF" stroke-width="6.07759" stroke-linecap="round" stroke-linejoin="round"/>
  <path d="M65.7759 8.05176V24.2587H81.9828" stroke="#33CAFF" stroke-width="6.07759" stroke-linecap="round" stroke-linejoin="round"/>
  <path d="M86.0345 4L65.7759 24.2586" stroke="#33CAFF" stroke-width="6.07759" stroke-linecap="round" stroke-linejoin="round"/>
</svg>