<svg width="19" height="71" viewBox="0 0 19 25" fill="none" xmlns="http://www.w3.org/2000/svg">
  <path d="M8.17444 2.20928L3.82267 3.90148C2.81977 4.28853 2 5.51268 2 6.61082V13.2987C2 14.3608 2.68023 15.756 3.50872 16.3951L7.25871 19.2844C8.48839 20.2385 10.5116 20.2385 11.7413 19.2844L15.4913 16.3951C16.3198 15.756 17 14.3608 17 13.2987V6.61082C17 5.50368 16.1802 4.27953 15.1773 3.89248L10.8256 2.20928C10.0843 1.93024 8.89827 1.93024 8.17444 2.20928Z" stroke="#292D32" stroke-width="3.16225" stroke-linecap="round" stroke-linejoin="round"/>
  <path opacity="0.4" d="M6.91919 10.8866L8.32327 12.3358L12.0733 8.46533" stroke="black" stroke-width="3.16225" stroke-linecap="round" stroke-linejoin="round"/>
  <!-- <path d="M8.75346 67.8508H3.74425C3.17216 67.8508 2.69775 67.3764 2.69775 66.8043C2.69775 66.2322 3.17216 65.7578 3.74425 65.7578H8.75346C9.32554 65.7578 9.79995 66.2322 9.79995 66.8043C9.79995 67.3764 9.33949 67.8508 8.75346 67.8508Z" fill="#292D32"/> -->
  <!-- <path d="M6.25426 70.4181C5.68217 70.4181 5.20776 69.9437 5.20776 69.3716V64.3624C5.20776 63.7903 5.68217 63.3159 6.25426 63.3159C6.82634 63.3159 7.30075 63.7903 7.30075 64.3624V69.3716C7.30075 69.9437 6.82634 70.4181 6.25426 70.4181Z" fill="#292D32"/> -->
</svg>