<svg width="30" height="29" viewBox="0 0 30 29" fill="none" xmlns="http://www.w3.org/2000/svg">
  <path d="M22.256 28.4644C17.9863 28.4644 14.512 24.99 14.512 20.7204C14.512 16.4507 17.9863 12.9763 22.256 12.9763C26.5257 12.9763 30 16.4507 30 20.7204C30 24.99 26.5257 28.4644 22.256 28.4644ZM22.256 15.0693C19.1444 15.0693 16.6049 17.6088 16.6049 20.7204C16.6049 23.8319 19.1444 26.3714 22.256 26.3714C25.3676 26.3714 27.9071 23.8319 27.9071 20.7204C27.9071 17.6088 25.3676 15.0693 22.256 15.0693Z" fill="#292D32"/>
  <path d="M24.7535 21.8506H19.7442C19.1722 21.8506 18.6978 21.3761 18.6978 20.8041C18.6978 20.232 19.1722 19.7576 19.7442 19.7576H24.7535C25.3255 19.7576 25.7999 20.232 25.7999 20.8041C25.7999 21.3761 25.3395 21.8506 24.7535 21.8506Z" fill="#292D32"/>
  <path d="M22.2543 24.4181C21.6822 24.4181 21.2078 23.9437 21.2078 23.3716V18.3624C21.2078 17.7903 21.6822 17.3159 22.2543 17.3159C22.8263 17.3159 23.3007 17.7903 23.3007 18.3624V23.3716C23.3007 23.9437 22.8263 24.4181 22.2543 24.4181Z" fill="#292D32"/>
  <path d="M14.9997 26.9297C14.5672 26.9297 14.1346 26.8739 13.7858 26.7483C10.2138 25.5344 0 19.6182 0 8.84637C0 3.96274 3.94876 0 8.80449 0C11.1347 0 13.3672 0.934895 14.9997 2.56742C16.6322 0.934895 18.8787 0 21.195 0C26.0507 0 29.9994 3.96274 29.9994 8.84637C29.9994 11.5672 29.3436 14.1765 28.046 16.6183C27.8925 16.9113 27.5995 17.1206 27.2646 17.1625C26.9158 17.2043 26.5949 17.0927 26.3576 16.8415C25.2693 15.6974 23.8042 15.0555 22.2414 15.0555C19.1299 15.0555 16.5904 17.595 16.5904 20.7066C16.5904 22.088 17.1067 23.4275 18.0415 24.474C18.2648 24.7251 18.3485 25.06 18.2787 25.3809C18.209 25.7018 17.9857 25.9809 17.6927 26.1204C17.1346 26.3716 16.6322 26.5809 16.1718 26.7344C15.8509 26.8739 15.4323 26.9297 14.9997 26.9297ZM8.80449 2.09298C5.10688 2.09298 2.09298 5.12086 2.09298 8.84637C2.09298 18.3904 11.2602 23.6647 14.4695 24.767C14.7207 24.8647 15.2648 24.8507 15.516 24.767C15.5578 24.753 15.5997 24.7391 15.6416 24.7251C14.916 23.5251 14.5114 22.1438 14.5114 20.7205C14.5114 16.4509 17.9857 12.9765 22.2554 12.9765C23.9019 12.9765 25.4646 13.4928 26.7762 14.4276C27.5297 12.6416 27.9065 10.7719 27.9065 8.84637C27.9065 5.12086 24.8926 2.09298 21.195 2.09298C19.102 2.09298 17.0927 3.09769 15.8369 4.78603C15.4462 5.31625 14.5532 5.31625 14.1625 4.78603C12.9067 3.09769 10.8975 2.09298 8.80449 2.09298Z" fill="#292D32"/>
</svg>