<svg width="32" height="29" viewBox="0 0 32 29" fill="none" xmlns="http://www.w3.org/2000/svg">
  <path d="M23.5861 28.4644C19.2181 28.4644 15.6638 24.99 15.6638 20.7204C15.6638 16.4507 19.2181 12.9763 23.5861 12.9763C27.9541 12.9763 31.5084 16.4507 31.5084 20.7204C31.5084 24.99 27.9541 28.4644 23.5861 28.4644ZM23.5861 15.0693C20.4029 15.0693 17.805 17.6088 17.805 20.7204C17.805 23.8319 20.4029 26.3714 23.5861 26.3714C26.7693 26.3714 29.3672 23.8319 29.3672 20.7204C29.3672 17.6088 26.7693 15.0693 23.5861 15.0693Z" fill="#33CAFF"/>
  <path d="M26.1414 21.8506H21.0169C20.4316 21.8506 19.9463 21.3761 19.9463 20.8041C19.9463 20.232 20.4316 19.7576 21.0169 19.7576H26.1414C26.7266 19.7576 27.212 20.232 27.212 20.8041C27.212 21.3761 26.7409 21.8506 26.1414 21.8506Z" fill="#33CAFF"/>
  <path d="M23.5847 24.4181C22.9995 24.4181 22.5142 23.9437 22.5142 23.3716V18.3624C22.5142 17.7903 22.9995 17.3159 23.5847 17.3159C24.17 17.3159 24.6553 17.7903 24.6553 18.3624V23.3716C24.6553 23.9437 24.17 24.4181 23.5847 24.4181Z" fill="#33CAFF"/>
  <path d="M16.1628 26.9297C15.7203 26.9297 15.2778 26.8739 14.921 26.7483C11.2667 25.5344 0.817871 19.6182 0.817871 8.84637C0.817871 3.96274 4.85752 0 9.82502 0C12.2088 0 14.4927 0.934895 16.1628 2.56742C17.833 0.934895 20.1311 0 22.5007 0C27.4682 0 31.5078 3.96274 31.5078 8.84637C31.5078 11.5672 30.8369 14.1765 29.5094 16.6183C29.3524 16.9113 29.0526 17.1206 28.71 17.1625C28.3532 17.2043 28.0249 17.0927 27.7822 16.8415C26.6688 15.6974 25.17 15.0555 23.5713 15.0555C20.3881 15.0555 17.7901 17.595 17.7901 20.7066C17.7901 22.088 18.3183 23.4275 19.2747 24.474C19.5031 24.7251 19.5887 25.06 19.5173 25.3809C19.446 25.7018 19.2176 25.9809 18.9178 26.1204C18.3468 26.3716 17.833 26.5809 17.3619 26.7344C17.0336 26.8739 16.6054 26.9297 16.1628 26.9297ZM9.82502 2.09298C6.0423 2.09298 2.95903 5.12086 2.95903 8.84637C2.95903 18.3904 12.3373 23.6647 15.6204 24.767C15.8774 24.8647 16.4341 24.8507 16.691 24.767C16.7338 24.753 16.7766 24.7391 16.8195 24.7251C16.0772 23.5251 15.6632 22.1438 15.6632 20.7205C15.6632 16.4509 19.2176 12.9765 23.5855 12.9765C25.2699 12.9765 26.8686 13.4928 28.2104 14.4276C28.9813 12.6416 29.3667 10.7719 29.3667 8.84637C29.3667 5.12086 26.2834 2.09298 22.5007 2.09298C20.3595 2.09298 18.304 3.09769 17.0193 4.78603C16.6196 5.31625 15.7061 5.31625 15.3064 4.78603C14.0217 3.09769 11.9662 2.09298 9.82502 2.09298Z" fill="#33CAFF"/>
</svg>